<?xml version="1.0" encoding="UTF-8" standalone="no"?>
<svg
   xmlns:osb="http://www.openswatchbook.org/uri/2009/osb"
   xmlns:dc="http://purl.org/dc/elements/1.1/"
   xmlns:cc="http://creativecommons.org/ns#"
   xmlns:rdf="http://www.w3.org/1999/02/22-rdf-syntax-ns#"
   xmlns:svg="http://www.w3.org/2000/svg"
   xmlns="http://www.w3.org/2000/svg"
   xmlns:xlink="http://www.w3.org/1999/xlink"
   xmlns:sodipodi="http://sodipodi.sourceforge.net/DTD/sodipodi-0.dtd"
   xmlns:inkscape="http://www.inkscape.org/namespaces/inkscape"
   inkscape:export-ydpi="96"
   inkscape:export-xdpi="96"
   inkscape:export-filename="C:\Users\jkwapulinski\Downloads\pointing-finger-left.png"
   inkscape:version="1.0beta2 (1609ba5, 2020-01-08)"
   version="1.1"
   viewBox="0 0 159.2 74.801"
   sodipodi:docname="pointing-finger-left.svg"
   id="svg2">
  <defs
     id="defs24">
    <linearGradient
       id="linearGradient988"
       inkscape:collect="always">
      <stop
         id="stop984"
         offset="0"
         style="stop-color:#0025ff;stop-opacity:1" />
      <stop
         id="stop986"
         offset="1"
         style="stop-color:#0074ff;stop-opacity:1" />
    </linearGradient>
    <linearGradient
       id="linearGradient978"
       inkscape:collect="always">
      <stop
         id="stop974"
         offset="0"
         style="stop-color:#0058ff;stop-opacity:1" />
      <stop
         id="stop976"
         offset="1"
         style="stop-color:#0000b9;stop-opacity:1" />
    </linearGradient>
    <linearGradient
       osb:paint="solid"
       id="linearGradient964">
      <stop
         id="stop962"
         offset="0"
         style="stop-color:#0000ff;stop-opacity:1;" />
    </linearGradient>
    <radialGradient
       gradientTransform="matrix(0.03192485,0.22217994,-2.3884753,0.34319817,-5206.8838,-4099.0203)"
       gradientUnits="userSpaceOnUse"
       r="20"
       fy="-4393.4878"
       fx="5461.2017"
       cy="-4393.4878"
       cx="5461.2017"
       id="radialGradient980"
       xlink:href="#linearGradient978"
       inkscape:collect="always" />
    <linearGradient
       gradientUnits="userSpaceOnUse"
       y2="-4371.8486"
       x2="5442.5132"
       y1="-4389.4336"
       x1="5461.5044"
       id="linearGradient996"
       xlink:href="#linearGradient988"
       inkscape:collect="always" />
  </defs>
  <sodipodi:namedview
     inkscape:document-rotation="0"
     inkscape:document-units="px"
     inkscape:pageopacity="0.0"
     inkscape:window-width="1920"
     fit-margin-bottom="10"
     fit-margin-right="10"
     inkscape:cy="34.753838"
     inkscape:cx="89.691458"
     inkscape:current-layer="layer1"
     borderopacity="1.0"
     showgrid="false"
     inkscape:window-height="1027"
     inkscape:window-x="1912"
     inkscape:zoom="11.313709"
     inkscape:window-maximized="1"
     fit-margin-top="10"
     pagecolor="#ffffff"
     fit-margin-left="10"
     inkscape:window-y="-8"
     inkscape:pageshadow="2"
     bordercolor="#666666"
     id="base" />
  <g
     transform="translate(-6849.9 -973.78)"
     inkscape:groupmode="layer"
     inkscape:label="Layer 1"
     id="layer1">
    <g
       transform="translate(-4.8613592,-1.7677671)"
       id="g999">
      <rect
         style="mix-blend-mode:normal;fill:url(#linearGradient996);fill-opacity:1;stroke:url(#radialGradient980)"
         id="rect32"
         width="40"
         height="40"
         x="5441.2017"
         y="-4413.4878"
         rx="1.2"
         transform="rotate(47.10764)" />
    </g>
    <path
       d="m 6912.2081,1014.627 c 0.058,-0.099 0.2833,-0.28 0.5014,-0.4031 1.2146,-0.6867 1.7404,-1.0183 3.5765,-2.257 1.1095,-0.7487 2.1317,-1.38 2.2714,-1.4032 0.4372,-0.073 1.9466,-0.6122 2.2178,-0.7933 0.1425,-0.095 0.5305,-0.243 0.8623,-0.3284 0.3317,-0.085 0.7284,-0.2359 0.8818,-0.3342 1.0614,-0.6807 1.9413,-0.8832 3.3114,-0.762 0.504,0.044 1.1743,0.047 1.4897,0 0.3154,-0.041 0.6222,-0.049 0.6819,-0.016 0.06,0.033 0.1398,0.025 0.1778,-0.019 0.1055,-0.1225 0.7527,-0.2038 1.5294,-0.1913 0.3848,0 0.9262,-0.039 1.2032,-0.1002 0.277,-0.062 0.5439,-0.089 0.5929,-0.062 0.05,0.028 0.2274,-0.049 0.3966,-0.1682 0.4997,-0.3549 1.9249,-0.2251 3.2779,0.2989 0.2348,0.09 0.5338,0.1591 0.6645,0.1516 l 0.2375,-0.014 -0.171,-0.4883 c -0.094,-0.2686 -0.1576,-0.5411 -0.1416,-0.6055 0.033,-0.1309 1.0682,-0.75 1.3476,-0.8054 0.099,-0.019 0.3687,-0.1405 0.5985,-0.2685 0.23,-0.1281 0.471,-0.2031 0.5356,-0.1668 0.065,0.036 0.2052,0.032 0.3122,-0.014 0.1066,-0.041 0.4788,0.014 0.8261,0.1211 1.0025,0.3121 1.4185,0.3985 1.6077,0.3345 0.1756,-0.06 1.4246,0.025 1.5687,0.1058 0.042,0.024 0.065,0.087 0.051,0.1434 -0.033,0.1322 -0.5682,0.2178 -0.8939,0.1422 -0.142,-0.033 -0.3663,-0.049 -0.4983,-0.036 -0.3987,0.04 -1.4223,-0.079 -2.0798,-0.2435 -0.7331,-0.1828 -0.9436,-0.1568 -1.4726,0.1823 -0.2188,0.1402 -0.4626,0.2681 -0.5417,0.2844 -0.079,0.017 -0.1669,0.1225 -0.1951,0.2348 -0.07,0.2818 0.1079,0.4953 0.275,0.3304 0.081,-0.081 0.1594,-0.081 0.2003,0 0.2669,0.5179 0.6034,1.6334 0.7158,2.3726 0.099,0.6503 0.454,2.2296 0.8007,3.56 0.306,1.1745 0.4217,2.2542 0.2785,2.6004 -0.1445,0.3497 -0.1692,1.7608 -0.043,2.4804 0.094,0.5394 0.1649,0.6617 0.2304,0.3993 0.075,-0.3003 0.1016,-2.962 0.042,-4.1153 -0.064,-1.2127 -0.051,-1.4453 0.061,-1.1501 0.04,0.1016 0.058,0.2381 0.042,0.3019 -0.016,0.065 0,0.6128 0.04,1.2196 0.037,0.6069 0.066,1.4939 0.064,1.9714 0,0.4774 0,1.053 0,1.2789 0,0.2259 -0.053,0.6334 -0.1193,0.9057 -0.1079,0.4438 -0.1456,0.501 -0.3685,0.5547 -0.1898,0.046 -0.2666,0.1323 -0.3248,0.3687 -0.1273,0.5151 -0.072,0.6455 0.3238,0.773 0.5109,0.1643 2.414,0.3684 2.8394,0.3046 0.2008,-0.03 0.8054,-0.062 1.3437,-0.068 0.5384,0 1.0549,-0.04 1.148,-0.074 0.2229,-0.079 0.3528,0 0.3057,0.1907 -0.022,0.084 -0.1542,0.1602 -0.2959,0.1692 -0.1416,0.014 -0.6028,0.063 -1.0246,0.1196 -1.1614,0.1557 -2.6123,0.2512 -3.2132,0.2118 -0.2956,-0.019 -0.9352,-0.016 -1.4213,0 -0.5525,0.027 -0.9877,-0.017 -1.1615,-0.1142 -0.1867,-0.1058 -0.3396,-0.1141 -0.466,-0.028 -0.2499,0.1708 -0.4179,0.061 -0.5316,-0.3484 -0.052,-0.1851 -0.1762,-0.4486 -0.2773,-0.5859 -0.2421,-0.3286 -0.3455,-0.6188 -0.4266,-1.1976 -0.037,-0.2625 -0.096,-0.4939 -0.1318,-0.5139 -0.036,-0.019 -0.5396,0.4177 -1.1196,0.9731 -1.4223,1.3616 -1.8182,1.6394 -2.3446,1.6455 -0.6001,0 -1.3744,-0.1709 -1.9929,-0.4577 -0.7288,-0.3376 -0.8416,-0.3499 -0.9418,-0.103 -0.048,0.1169 -0.2528,0.7267 -0.4557,1.3541 -0.203,0.6274 -0.482,1.341 -0.6201,1.5858 -0.2192,0.3882 -0.3023,0.4521 -0.6518,0.5007 -0.2202,0.03 -0.6437,0.046 -0.9412,0.033 -0.2973,-0.014 -0.8478,0.04 -1.2234,0.1184 l -0.6827,0.1413 -0.2834,-0.5443 c -0.1711,-0.3287 -0.2927,-0.7005 -0.3071,-0.9389 -0.019,-0.3158 -0.064,-0.4176 -0.2302,-0.5106 -0.3245,-0.1826 -0.5581,0.041 -0.7203,0.6927 -0.1029,0.4147 -0.1934,0.6027 -0.3626,0.7571 -0.1417,0.1294 -0.2605,0.3479 -0.3211,0.5906 -0.1053,0.4234 -0.2998,0.5185 -0.6531,0.3195 -0.1016,-0.057 -0.3027,-0.1184 -0.446,-0.135 -0.1715,-0.021 -0.3378,-0.1142 -0.4867,-0.274 -0.4693,-0.5051 -0.6085,-1.2427 -0.4328,-2.2936 l 0.09,-0.5359 -0.5007,-0.3405 c -0.4781,-0.325 -0.5086,-0.3664 -0.6735,-0.9118 -0.2341,-0.7742 -0.2342,-1.2005 0,-1.9006 0.4155,-1.2465 0.685,-1.9604 0.9219,-2.4423 0.1366,-0.2778 0.2918,-0.5935 0.345,-0.7014 0.1283,-0.2605 0.023,-0.4424 -0.2104,-0.3636 -0.1029,0.035 -0.3916,0.041 -0.6404,0.014 -0.2488,-0.028 -0.5684,0.014 -0.7102,0.087 -0.1737,0.093 -0.3031,0.09 -0.3972,0 -0.2093,-0.2173 -0.8593,-0.046 -1.5536,0.4104 -0.6501,0.4269 -1.0199,0.5583 -1.4769,0.5245 -0.2001,-0.016 -0.3189,0.047 -0.391,0.2042 -0.2869,0.6241 -2.068,0.8709 -2.6681,0.3696 -0.4918,-0.4107 -0.8277,-1.8295 -0.5468,-2.3089 z m 0.5539,0.6119 c 0.1709,0.2922 0.3767,0.3398 0.9249,0.2141 0.2918,-0.067 0.5201,-0.079 0.5073,-0.028 -0.042,0.1693 -0.435,0.356 -0.82,0.3896 -0.4886,0.043 -0.5536,0.2342 -0.1351,0.3987 0.07,0.028 0.3331,0.027 0.5859,0 0.2527,-0.029 0.4944,-0.056 0.5372,-0.06 0.043,0 -0.041,0.065 -0.1868,0.1552 -0.2384,0.147 -0.2507,0.1704 -0.1256,0.2411 0.081,0.046 0.5029,-0.1495 1.005,-0.464 0.4764,-0.2984 1.0859,-0.6018 1.3545,-0.6742 0.2687,-0.073 0.7248,-0.2715 1.0135,-0.4427 0.5689,-0.3372 0.7678,-0.3857 1.9313,-0.4716 0.8206,-0.06 1.1003,-0.1912 1.0986,-0.5134 0,-0.1225 0.075,-0.2556 0.1969,-0.3458 0.1092,-0.081 0.259,-0.3177 0.3336,-0.5268 0.2384,-0.6676 0.3156,-0.8178 0.3679,-0.7165 0.028,0.054 0.017,0.2353 -0.024,0.4016 -0.042,0.1664 -0.042,0.3215 0,0.3449 0.074,0.041 0.1462,-0.3052 0.2686,-1.2854 0.034,-0.2711 0.077,-0.3964 0.1272,-0.3681 0.042,0.024 0.064,0.089 0.051,0.1455 -0.014,0.057 0,0.1183 0.037,0.1378 0.034,0.019 0.141,-0.1844 0.2373,-0.4527 0.1156,-0.3223 0.2079,-0.4693 0.2715,-0.4335 0.053,0.029 0.118,-0.036 0.1459,-0.1455 0.028,-0.1099 0.087,-0.2107 0.1341,-0.2245 0.048,-0.014 0.056,0.089 0.019,0.238 -0.036,0.1448 -0.034,0.2805 0,0.3017 0.038,0.021 0.083,-0.019 0.1003,-0.09 0.017,-0.071 0.1915,-0.3555 0.3859,-0.6328 0.3391,-0.4839 0.3504,-0.4904 0.2741,-0.1614 -0.1067,0.4626 0.042,0.3966 0.2815,-0.1253 0.1405,-0.3054 0.22,-0.392 0.2947,-0.3217 0.081,0.076 0.071,0.2008 -0.048,0.6039 -0.1079,0.3652 -0.1298,0.5614 -0.077,0.7 0.044,0.1184 0.031,0.359 -0.033,0.6204 -0.077,0.311 -0.08,0.6223 -0.013,1.1406 0.1028,0.7641 0.2663,1.1692 0.2646,0.6579 0,-0.1541 -0.013,-0.3824 -0.026,-0.5073 -0.014,-0.1253 -0.019,-0.4477 -0.013,-0.7175 0.013,-0.3867 0.031,-0.4803 0.1003,-0.442 0.1257,0.071 0.1599,0.3078 0.1402,0.9863 -0.013,0.3326 0,0.6469 0.031,0.6989 0.075,0.1457 0.098,-0.036 0.1287,-1.0459 0.015,-0.5142 0.056,-0.9531 0.087,-0.9753 0.095,-0.065 0.1578,0.4276 0.1206,0.9443 -0.043,0.5842 0.087,0.7305 0.151,0.1715 0.037,-0.3175 0.061,-0.3653 0.1337,-0.2683 0.064,0.084 0.1382,0.025 0.2599,-0.2022 0.1913,-0.3573 0.5814,-0.5622 0.8175,-0.4293 0.085,0.047 0.2279,0.044 0.3169,-0.014 0.089,-0.053 0.1868,-0.049 0.2171,0.014 0.087,0.1691 -0.2396,0.469 -0.5549,0.5092 -0.2702,0.035 -0.2813,0.052 -0.4296,0.6461 -0.084,0.3359 -0.1712,0.8251 -0.1943,1.0872 -0.023,0.2619 -0.056,0.6014 -0.074,0.7539 -0.018,0.1527 0.023,0.4655 0.088,0.6952 0.1155,0.3984 0.2374,1.094 0.3391,1.937 0.066,0.5492 0.1143,0.6868 0.1665,0.4775 0.053,-0.2147 -0.063,-1.2738 -0.2271,-2.0843 -0.1632,-0.8007 -0.2088,-1.8766 -0.076,-1.8019 0.031,0.018 0.07,0.3555 0.085,0.7512 0.03,0.805 0.1499,1.0495 0.1893,0.3886 0.037,-0.6301 0.1117,-0.5425 0.1923,0.2247 0.041,0.3837 0.1028,0.7146 0.1393,0.7352 0.08,0.044 0.1053,-0.362 0.05,-0.7707 -0.023,-0.1615 0,-0.388 0.043,-0.5034 0.075,-0.1861 0.084,-0.1666 0.087,0.1728 0,0.4618 0.1181,0.5695 0.1823,0.1715 0.027,-0.1605 0.088,-0.284 0.1427,-0.2812 0.053,0 0.076,0.084 0.053,0.1794 -0.051,0.2046 0.05,1.3995 0.1143,1.3555 0.024,-0.017 0.051,-0.2886 0.06,-0.6044 0.02,-0.6981 0.033,-0.7626 0.1155,-0.5476 0.036,0.092 0.048,0.6208 0.03,1.1748 -0.033,1.0177 0.1573,2.3983 0.4696,3.3938 0.084,0.2678 0.096,0.4163 0.036,0.4128 -0.053,0 -0.1003,-0.027 -0.1054,-0.052 0,-0.025 -0.094,-0.4376 -0.1982,-0.9153 -0.2184,-1.0042 -0.217,-0.9975 -0.3139,-1.5547 -0.076,-0.4349 -0.1764,-0.5925 -0.2333,-0.3645 -0.061,0.2461 0.2473,1.9279 0.4916,2.6794 0.257,0.7902 0.3909,0.9799 0.4695,0.6649 0.026,-0.103 0.078,-0.2103 0.1168,-0.2367 0.1313,-0.089 0.498,-1.0148 0.4576,-1.1536 -0.022,-0.074 -0.03,-0.1704 -0.019,-0.2157 0.034,-0.1393 0.2063,0.014 0.2556,0.2261 0.026,0.1114 0.069,0.2146 0.096,0.23 0.065,0.036 0.3848,-0.6008 0.4868,-0.971 0.081,-0.2923 0.081,-0.2924 0.071,0 0,0.1583 -0.05,0.4759 -0.1003,0.7059 -0.073,0.3337 -0.068,0.3831 0.019,0.2453 0.1848,-0.29 0.3423,-1.0289 0.2914,-1.3682 -0.056,-0.3761 0.013,-0.4641 0.1623,-0.2076 0.1181,0.2013 0.091,0.6427 -0.081,1.3313 -0.1193,0.4782 -0.057,0.6567 0.1079,0.31 0.1905,-0.401 0.2718,-0.8986 0.2066,-1.2661 -0.099,-0.5584 -0.1003,-1.2395 0,-1.3063 0.051,-0.035 0.094,0.1411 0.1066,0.4326 0.013,0.2697 0.056,0.5522 0.099,0.6278 0.051,0.09 0.028,0.3861 -0.067,0.8655 -0.1982,0.9992 -0.193,1.1373 0.03,0.7837 0.2594,-0.4108 0.3631,-0.9021 0.3014,-1.4277 -0.058,-0.5003 -0.015,-0.6145 0.1181,-0.309 0.064,0.1441 0.048,0.4163 -0.052,0.9691 -0.076,0.4228 -0.1117,0.7964 -0.077,0.8304 0.034,0.033 0.1468,-0.1253 0.2498,-0.3542 0.1956,-0.4339 0.2313,-0.4041 0.1853,0.1548 -0.026,0.3035 -0.016,0.3204 0.093,0.1817 0.075,-0.095 0.1794,-0.4673 0.2769,-0.9859 0.096,-0.5112 0.1818,-0.8185 0.2223,-0.7957 0.073,0.04 -0.1423,1.4227 -0.2883,1.8604 -0.1257,0.377 -0.052,0.373 0.1902,-0.014 0.1446,-0.2281 0.2332,-0.4905 0.2994,-0.8867 0.059,-0.3487 0.1207,-0.5479 0.1632,-0.5237 0.038,0.021 0.034,0.1908 -0.013,0.3768 -0.041,0.186 -0.081,0.4673 -0.087,0.6254 -0.013,0.2842 -0.013,0.2839 0.1231,-0.018 0.1921,-0.4385 0.2973,-0.3132 0.1206,0.1438 -0.1594,0.4126 -0.1105,0.6805 0.077,0.4313 0.064,-0.084 0.1964,-0.3801 0.2952,-0.6581 0.2126,-0.5985 0.3273,-0.6382 0.1355,-0.047 -0.1016,0.3118 -0.1079,0.4101 -0.028,0.4146 0.1519,0.014 0.4422,-0.6125 0.6349,-1.3577 0.1218,-0.471 0.1881,-0.6232 0.2423,-0.5565 0.053,0.065 0,0.3526 -0.1644,1.0005 -0.2169,0.825 -0.225,0.895 -0.087,0.7615 0.1206,-0.1155 0.2128,-0.4103 0.4334,-1.3756 0.2262,-0.9905 0.2816,-1.1637 0.2854,-0.8947 0,0.1837 -0.041,0.6175 -0.096,0.9642 -0.07,0.4314 -0.071,0.6095 0,0.5642 0.06,-0.04 0.197,-0.515 0.3549,-1.2207 0.142,-0.6351 0.2769,-1.1442 0.2999,-1.1313 0.053,0.029 0.02,0.7438 -0.061,1.346 -0.034,0.2558 -0.04,0.5112 -0.013,0.5674 0.053,0.1044 0.3677,-1.3285 0.4384,-2.0004 0.057,-0.5416 0.093,-0.054 0.068,0.9498 -0.013,0.4946 -0.038,0.9813 -0.057,1.0815 -0.02,0.1002 0.033,0.014 0.1194,-0.1992 0.1066,-0.2624 0.1593,-0.5438 0.1676,-0.9022 0.015,-0.6525 -0.054,-1.6319 -0.1257,-1.7694 -0.074,-0.1458 -0.023,-0.3074 0.081,-0.2492 0.047,0.027 0.118,0.3106 0.1585,0.6309 0.04,0.3205 0.09,0.5702 0.113,0.5551 0.096,-0.065 0.08,-0.9115 -0.026,-1.3302 -0.063,-0.2522 -0.104,-0.5045 -0.09,-0.5608 0.014,-0.055 -0.013,-0.1915 -0.05,-0.3004 -0.1411,-0.3705 -0.4079,-1.8091 -0.2789,-1.5032 0.2154,0.5104 0.6355,2.5651 0.751,3.6737 0.06,0.5718 0.1701,0.3253 0.118,-0.2625 -0.023,-0.2601 -0.028,-0.5312 -0.013,-0.6028 0.017,-0.071 0,-0.1474 -0.036,-0.1685 -0.038,-0.021 -0.05,-0.1142 -0.027,-0.2068 0.03,-0.1225 0.062,-0.073 0.1168,0.184 0.088,0.4195 0.2236,0.4307 0.2222,0.018 0,-0.3187 0.1307,-0.3329 0.2243,-0.024 0.095,0.3128 0.1609,0.093 0.1231,-0.4075 -0.021,-0.2914 -0.113,-0.6213 -0.2177,-0.7922 -0.099,-0.1611 -0.2364,-0.4639 -0.3056,-0.6729 -0.1218,-0.3697 -0.1295,-0.3759 -0.2719,-0.236 -0.08,0.079 -0.1506,0.1183 -0.1559,0.087 0,-0.03 -0.042,-0.2715 -0.083,-0.5353 -0.04,-0.2638 -0.095,-0.4929 -0.1231,-0.5092 -0.028,-0.016 -0.041,-0.07 -0.03,-0.1184 0.013,-0.049 0.1452,-0.014 0.2954,0.092 0.2294,0.1518 0.3094,0.298 0.4976,0.9097 0.2102,0.6825 0.3603,0.9463 0.4146,0.7286 0.042,-0.166 -0.3573,-1.7356 -0.5063,-1.9937 -0.091,-0.1575 -0.1041,-0.2283 -0.034,-0.1923 0.061,0.032 0.143,0.1813 0.1828,0.3329 0.041,0.1514 0.1079,0.2949 0.1499,0.3188 0.08,0.044 0.2853,0.8465 0.4091,1.5983 0.04,0.2369 0.1003,0.4475 0.1368,0.4681 0.084,0.047 0.1298,-0.1268 0.067,-0.2486 -0.027,-0.05 -0.043,-0.2612 -0.038,-0.468 l 0.013,-0.376 0.093,0.404 c 0.051,0.222 0.079,0.4617 0.061,0.5326 -0.017,0.071 0.014,0.1548 0.071,0.1865 0.1549,0.088 0.2731,-0.506 0.2074,-1.042 -0.046,-0.3768 -0.4631,-1.8454 -0.4915,-1.7311 0,0.019 -0.084,-0.089 -0.1742,-0.2405 -0.1715,-0.2851 -0.1842,-0.5141 -0.023,-0.4236 0.051,0.028 0.14,0.1845 0.1987,0.3464 0.058,0.162 0.167,0.3284 0.2409,0.3701 0.1155,0.064 0.1142,-0.014 -0.013,-0.5035 -0.078,-0.3187 -0.2025,-0.784 -0.2743,-1.034 -0.073,-0.2501 -0.1067,-0.4411 -0.077,-0.4245 0.073,0.04 0.4894,1.1049 0.5449,1.3914 0.024,0.1266 0.093,0.2574 0.1514,0.2905 0.1194,0.067 0.023,-0.5446 -0.2222,-1.4094 -0.084,-0.297 -0.1015,-0.492 -0.046,-0.5087 0.063,-0.018 0.08,-0.1127 0.056,-0.307 -0.031,-0.2514 -0.074,-0.2948 -0.417,-0.4238 -0.2102,-0.079 -0.4491,-0.1295 -0.531,-0.1141 -0.1627,0.033 -0.5593,-0.018 -1.9272,-0.2443 -1.0116,-0.1677 -1.3293,-0.1459 -1.3894,0.096 -0.034,0.1392 0.017,0.1877 0.3225,0.3001 0.3087,0.1141 0.3463,0.1494 0.2474,0.2344 -0.065,0.056 -0.2621,0.054 -0.4397,0 -0.2672,-0.085 -0.3312,-0.1457 -0.37,-0.3491 -0.046,-0.2361 -0.053,-0.2414 -0.2168,-0.1322 -0.1399,0.093 -0.157,0.1392 -0.096,0.2553 0.057,0.1113 0.033,0.1494 -0.1168,0.1796 -0.2312,0.046 -0.9221,-0.054 -1.3143,-0.1912 -0.1579,-0.056 -0.3266,-0.084 -0.3749,-0.062 -0.048,0.021 -0.2936,0.019 -0.5454,0 -0.2517,-0.022 -1.0619,0.057 -1.8002,0.1782 -0.7383,0.1211 -1.4759,0.2011 -1.6388,0.1779 -0.163,-0.024 -0.4214,0.014 -0.5745,0.084 -0.1933,0.087 -0.3588,0.076 -0.5426,-0.036 -0.519,-0.3184 -1.3476,-0.092 -2.8951,0.7927 -0.3832,0.2189 -1.7061,0.7106 -3.1685,1.1776 -0.9182,0.2934 -1.1426,0.4098 -2.162,1.1223 -2.438,1.7036 -2.9728,2.0454 -3.4151,2.1814 -0.7023,0.2159 -0.8579,0.437 -0.6081,0.8641 z m 4.1096,-2.1803 c 0.034,0 0.1579,0.09 0.2754,0.2167 0.1739,0.1875 0.1882,0.2363 0.077,0.2616 -0.084,0.019 -0.194,-0.046 -0.2873,-0.1689 -0.156,-0.2063 -0.1729,-0.2861 -0.066,-0.3094 z m 0.7833,-0.8731 c 0.122,-0.036 0.1793,0.1142 0.2096,0.5497 0.034,0.4958 -0.021,0.522 -0.2107,0.099 -0.1547,-0.3444 -0.1542,-0.6028 0,-0.649 z m 1.1815,-0.2145 c 0.087,0.049 0.3172,0.464 0.2986,0.5386 -0.034,0.1392 -0.2313,-0.017 -0.2979,-0.2366 -0.061,-0.1998 -0.061,-0.3358 0,-0.302 z m 1.3504,1.8156 c 0.058,0.033 0.076,0.096 0.038,0.1392 -0.037,0.043 -0.097,0.063 -0.1323,0.043 -0.036,-0.019 -0.053,-0.082 -0.038,-0.1392 0.014,-0.057 0.074,-0.076 0.1323,-0.043 z m 0.2458,-0.8615 c 0.028,0.054 0.017,0.1557 -0.026,0.2269 -0.1066,0.1819 -0.1389,0.1349 -0.077,-0.1128 0.029,-0.117 0.075,-0.1679 0.1028,-0.1141 z m 0.3145,0 c 0.087,-0.096 0.097,-0.082 0.053,0.089 -0.028,0.1127 -0.099,0.2583 -0.156,0.3225 -0.087,0.096 -0.097,0.081 -0.053,-0.089 0.028,-0.1126 0.099,-0.2583 0.156,-0.3226 z m 2.9243,-3.279 c 0.038,0.021 0.057,0.085 0.043,0.1414 -0.014,0.057 -0.056,0.085 -0.094,0.064 -0.038,-0.021 -0.057,-0.085 -0.043,-0.1413 0.014,-0.057 0.056,-0.085 0.094,-0.064 z m 3.7946,1.8428 c 0.1194,-0.062 0.2476,-0.09 0.285,-0.063 0.038,0.028 0.1016,0.076 0.1425,0.11 0.083,0.067 -0.5206,0.3109 -0.6237,0.2528 -0.1104,-0.062 -0.031,-0.1818 0.1962,-0.2999 z m -0.028,6.3092 c 0.017,0.135 0.091,0.4269 0.1633,0.6489 0.073,0.2219 0.1002,0.3858 0.061,0.3641 -0.1079,-0.06 -0.344,-0.9448 -0.2973,-1.1112 0.029,-0.1044 0.051,-0.076 0.073,0.099 z m 0.5718,-0.1987 c 0.08,-0.089 0.085,-0.036 0.023,0.2178 -0.046,0.1843 -0.1129,0.3175 -0.1507,0.2964 -0.087,-0.049 -0.013,-0.361 0.1281,-0.5142 z m 0.5184,-0.3531 c 0.02,0.3976 -0.1556,1.2608 -0.2132,1.0467 -0.019,-0.073 0.017,-0.4187 0.08,-0.7701 0.1092,-0.6071 0.1156,-0.6209 0.1336,-0.2766 z m 0.3769,-0.2307 c 0.037,-0.025 0.088,0.11 0.1117,0.3006 0.034,0.2674 0,0.4756 -0.1458,0.9103 -0.26,0.7724 -0.3176,0.7608 -0.1831,-0.036 0.063,-0.3701 0.1219,-0.7754 0.1321,-0.9006 0.013,-0.1253 0.048,-0.2485 0.087,-0.2737 z m 0.4219,-0.1044 c 0,0.085 -0.023,0.1726 -0.054,0.1941 -0.031,0.021 -0.031,-0.049 0,-0.1552 0.033,-0.1184 0.056,-0.1337 0.057,-0.039 z m 0.4658,-0.8298 c 0.029,0.056 0.02,0.2263 -0.017,0.3782 -0.054,0.2159 -0.076,0.2343 -0.098,0.085 -0.037,-0.2523 0.048,-0.5931 0.1156,-0.4627 z m 0.7924,0.8565 c 0.033,0.019 0.051,0.1609 0.04,0.3156 -0.027,0.3496 0.07,0.417 0.2107,0.1477 0.1027,-0.1967 0.1066,-0.1957 0.1053,0.029 0,0.1281 -0.048,0.2754 -0.1041,0.3261 -0.071,0.064 -0.1092,0.2296 -0.1232,0.5309 -0.013,0.2411 -0.029,0.474 -0.04,0.5177 -0.041,0.1649 -0.1631,-0.6186 -0.1797,-1.1543 -0.019,-0.6177 0,-0.765 0.09,-0.7135 z m 0.3306,-0.4442 c 0.029,-0.019 0.074,0 0.099,0.051 0.06,0.1156 -0.013,0.3938 -0.09,0.3497 -0.075,-0.041 -0.083,-0.3507 -0.013,-0.4009 z m 0.4214,0.4863 c 0,0.081 -0.028,0.1971 -0.064,0.2571 -0.037,0.06 -0.038,0 0,-0.148 0.036,-0.1413 0.064,-0.1904 0.066,-0.1085 z m 1.8301,-0.135 c 0,0.085 -0.023,0.1727 -0.054,0.194 -0.031,0.021 -0.031,-0.049 0,-0.1551 0.033,-0.1183 0.056,-0.1336 0.057,-0.039 z m 1.9451,-7.5605 c 0.017,0.014 0.118,0.2018 0.2241,0.4268 0.1054,0.2251 0.2758,0.5382 0.3774,0.6958 0.1015,0.1576 0.1622,0.3391 0.1348,0.4035 -0.028,0.063 0.017,0.3204 0.099,0.5691 0.3248,0.9854 -0.043,0.2611 -0.568,-1.1197 -0.064,-0.1704 -0.1693,-0.4199 -0.2325,-0.5544 -0.1003,-0.2152 -0.1218,-0.47 -0.036,-0.4211 z m 0.994,2.6702 c 0.087,0.049 0.1835,0.4386 0.1207,0.4817 -0.026,0.016 -0.077,-0.093 -0.1181,-0.2452 -0.041,-0.152 -0.041,-0.2583 0,-0.2365 z m -15.9141,7.8125 c 0.2932,1.1906 0.3445,1.3291 0.4221,1.1408 0.044,-0.1073 -0.019,-0.4565 -0.1711,-0.949 -0.1326,-0.4287 -0.2298,-0.8248 -0.2161,-0.8801 0.014,-0.056 0,-0.1183 -0.043,-0.1392 -0.1372,-0.076 -0.1338,0.2503 0.013,0.8273 z m 1.602,-6.1652 c 0.09,-0.062 0.033,-0.3173 -0.064,-0.2885 -0.057,0.017 -0.071,0.075 -0.041,0.1769 0.026,0.084 0.073,0.1336 0.1042,0.1114 z m -1.3613,5.1383 c 0.03,0.3687 0.5155,2.2954 0.6116,2.4232 0.1533,0.2043 0.085,-0.3239 -0.1514,-1.1634 -0.1478,-0.5259 -0.2878,-1.1193 -0.3113,-1.3186 -0.024,-0.1995 -0.067,-0.3762 -0.096,-0.3929 -0.076,-0.043 -0.085,0.035 -0.052,0.4517 z m 1.6268,-6.0735 c 0.03,0.055 0.071,0.028 0.094,-0.065 0.023,-0.092 0,-0.1551 -0.043,-0.1413 -0.047,0.014 -0.089,0.043 -0.094,0.064 0,0.022 0.014,0.085 0.043,0.1413 z m -0.942,5.1339 c 0.1736,1.1923 0.1726,1.1754 0.067,1.1159 -0.1067,-0.06 -0.2806,-0.5381 -0.2782,-0.7656 0,-0.084 -0.028,-0.1336 -0.063,-0.1127 -0.099,0.06 -0.027,0.6831 0.135,1.1716 0.078,0.2377 0.1631,0.5809 0.1875,0.7624 0.077,0.577 0.3444,1.4836 0.4292,1.4584 0.1194,-0.036 0.075,-0.3454 -0.1714,-1.1757 -0.1951,-0.6579 -0.229,-1.0993 -0.079,-1.0144 0.031,0.018 0.1968,0.5329 0.3667,1.1446 0.1701,0.6116 0.329,1.1234 0.3533,1.137 0.1015,0.057 0.085,-0.2046 -0.042,-0.6489 -0.2319,-0.8142 -0.5387,-2.058 -0.669,-2.7121 -0.068,-0.345 -0.1504,-0.6417 -0.1817,-0.6592 -0.031,-0.018 -0.041,-0.1812 -0.02,-0.3636 0.02,-0.1823 0,-0.3493 -0.034,-0.3711 -0.1256,-0.071 -0.1256,0.1641 0,1.0325 z m 0.2481,-1.24 c 0.041,0.1058 0.1117,0.5337 0.1606,0.9519 0.085,0.7366 0.5374,2.4853 0.6609,2.5548 0.1004,0.057 0.073,-0.1378 -0.1446,-0.9788 -0.3467,-1.3477 -0.5692,-2.4114 -0.5602,-2.6776 0,-0.1394 -0.02,-0.2695 -0.054,-0.2892 -0.1016,-0.057 -0.1414,0.2288 -0.061,0.4389 z m 1.1238,-3.9745 c 0.053,0 0.1117,-0.057 0.1304,-0.1323 0.019,-0.075 0,-0.178 -0.041,-0.2282 -0.044,-0.054 -0.098,0 -0.1304,0.1323 -0.033,0.1323 -0.017,0.225 0.041,0.2282 z m -0.4933,2.6831 c 0.096,0.2537 0.1637,-0.014 0.094,-0.3647 -0.05,-0.2511 -0.052,-0.2518 -0.1079,-0.039 -0.031,0.1196 -0.026,0.3012 0.014,0.4033 z m -0.204,1.5017 c 0.043,0.3226 0.3184,1.5455 0.5195,2.3055 0.05,0.1858 0.1192,0.317 0.1571,0.2915 0.037,-0.025 0,-0.2789 -0.074,-0.5634 -0.1562,-0.572 -0.2909,-1.303 -0.2638,-1.4313 0.013,-0.046 -0.054,-0.3542 -0.1412,-0.6857 -0.1656,-0.6294 -0.2863,-0.5788 -0.1983,0.084 z m 0.5196,-1.8266 c 0.014,0.2027 0.091,0.6371 0.1721,0.965 0.08,0.328 0.199,0.8502 0.2631,1.1604 0.1092,0.5305 0.2139,0.7465 0.2639,0.5464 0.013,-0.049 -0.087,-0.6327 -0.2227,-1.2982 -0.1344,-0.6655 -0.2384,-1.2348 -0.2309,-1.2648 0.037,-0.1455 -0.09,-0.6814 -0.1557,-0.6617 -0.1042,0.03 -0.1194,0.1267 -0.09,0.5529 z m -0.1481,1.5134 c 0.113,0.7317 0.5085,2.0887 0.5911,2.0322 0.046,-0.032 -0.1717,-1.1414 -0.3693,-1.8801 -0.04,-0.1473 -0.063,-0.3022 -0.051,-0.3442 0.013,-0.042 -0.033,-0.1392 -0.098,-0.2143 -0.064,-0.075 -0.1104,-0.2244 -0.1041,-0.3302 0.013,-0.1057 0,-0.1322 -0.029,-0.06 -0.023,0.073 0,0.4313 0.061,0.7966 z m 0.86,-0.4536 c 0.241,0.8172 0.3128,0.5029 0.118,-0.5161 -0.095,-0.4965 -0.1792,-1.0249 -0.1869,-1.1745 -0.014,-0.2799 -0.06,-0.3552 -0.1689,-0.2806 -0.097,0.067 0.061,1.3687 0.2381,1.9712 z m 0.1219,-1.7295 c 0.1015,0.7405 0.3731,1.6173 0.4298,1.39 0.023,-0.09 -0.019,-0.425 -0.094,-0.7431 -0.075,-0.318 -0.1549,-0.8453 -0.179,-1.1714 -0.024,-0.3263 -0.083,-0.582 -0.1285,-0.568 -0.1142,0.033 -0.1232,0.402 -0.028,1.0925 z m 0.4224,-0.2645 c 0.09,0.5803 0.1859,1.0993 0.2136,1.1532 0.1155,0.2244 0.1231,-0.2751 0.014,-0.9636 -0.065,-0.4062 -0.1393,-0.9757 -0.1671,-1.2654 -0.028,-0.2897 -0.079,-0.5428 -0.1143,-0.5625 -0.1281,-0.073 -0.1053,0.6106 0.053,1.6383 z m 0.6095,0.4716 c 0.044,0.054 0.08,0.03 0.083,-0.055 0,-0.084 -0.031,-0.1949 -0.075,-0.2474 -0.044,-0.054 -0.08,-0.03 -0.083,0.055 0,0.084 0.031,0.1948 0.074,0.2473 z m -0.1539,3.1331 c 0.041,0.5904 0.5918,2.764 0.7175,2.8347 0.1244,0.07 0.088,-0.2134 -0.1169,-0.9315 -0.1205,-0.4207 -0.2991,-1.2073 -0.3972,-1.7477 -0.098,-0.5404 -0.2121,-0.9725 -0.2535,-0.9602 -0.042,0.014 -0.052,0.1225 -0.024,0.2444 0.028,0.1225 0.061,0.3744 0.075,0.5603 z m -0.6254,2.7045 c 0.2027,0.6823 0.3252,0.9261 0.1986,0.3949 -0.041,-0.1675 -0.083,-0.337 -0.095,-0.3762 -0.013,-0.039 -0.046,-0.2292 -0.073,-0.4219 -0.047,-0.3349 -0.1592,-0.521 -0.2044,-0.3395 -0.013,0.047 0.066,0.3815 0.1737,0.7427 z m 0.3834,-2.0026 c 0.041,0.1968 0.097,0.3439 0.1218,0.3267 0.06,-0.04 -0.03,-0.7932 -0.099,-0.8321 -0.093,-0.053 -0.1003,0.135 -0.021,0.5054 z m -0.248,0.9545 c 0.065,0.5082 0.4716,1.8615 0.5444,1.8117 0.03,-0.019 0.014,-0.1518 -0.034,-0.2922 -0.048,-0.1407 -0.1515,-0.5552 -0.229,-0.9214 -0.25,-1.18 -0.3942,-1.4871 -0.2809,-0.5981 z m -0.3632,1.9382 c 0.1092,0.2865 0.1544,0.1786 0.075,-0.1783 -0.048,-0.2156 -0.083,-0.2677 -0.1091,-0.1634 -0.02,0.084 0,0.238 0.034,0.3417 z m 1.0725,-0.7763 c 0.1668,0.5291 0.3226,0.9729 0.3461,0.9862 0.1053,0.06 0.081,-0.2245 -0.061,-0.7302 -0.087,-0.3021 -0.2266,-0.8288 -0.313,-1.1706 -0.087,-0.3417 -0.1963,-0.6445 -0.2439,-0.6727 -0.1607,-0.095 -0.044,0.5813 0.2724,1.5873 z m 0.2103,-2.5883 c 0.054,0.3344 0.1439,0.6554 0.1984,0.7132 0.054,0.057 0.1104,0.3033 0.1244,0.5458 0.014,0.2427 0.056,0.4587 0.095,0.4803 0.118,0.067 0.095,-0.4369 -0.043,-0.9179 -0.183,-0.637 -0.2539,-0.9528 -0.2803,-1.249 -0.021,-0.2457 -0.1345,-0.4117 -0.1736,-0.2555 -0.013,0.041 0.026,0.3486 0.08,0.6831 z m 0.3336,-0.605 c 0.1484,0.6615 0.2662,0.9494 0.3127,0.7634 0.034,-0.1398 -0.3091,-1.7268 -0.3703,-1.7086 -0.1218,0.036 -0.113,0.1862 0.057,0.9452 z m 0.3828,-0.7705 c 0.06,0.2778 0.099,0.5451 0.087,0.594 -0.013,0.049 0.013,0.2384 0.05,0.4213 0.064,0.3046 0.074,0.3152 0.1219,0.1266 0.063,-0.2434 -0.1392,-1.7786 -0.2403,-1.8355 -0.1232,-0.07 -0.1299,0.1739 -0.019,0.693 z m 1.0638,0.7811 c 0.048,0.3458 0.1002,0.6629 0.1167,0.7046 0.017,0.041 0.093,0.4014 0.1703,0.7994 0.1777,0.9195 0.5211,2.0524 0.643,2.1209 0.1495,0.085 0.1658,0.1693 -0.2929,-1.5209 -0.084,-0.3094 -0.2392,-1.0959 -0.3448,-1.7478 -0.1054,-0.6519 -0.2194,-1.2007 -0.2527,-1.2193 -0.113,-0.065 -0.1275,0.2334 -0.041,0.8631 z m -0.2461,1.182 c 0.036,0.1572 0.1143,0.5126 0.173,0.7898 0.2985,1.3964 0.719,2.5972 0.7983,2.279 0.013,-0.039 -0.1105,-0.4857 -0.2681,-0.9944 -0.157,-0.5087 -0.32,-1.1577 -0.3624,-1.4424 -0.1104,-0.7449 -0.212,-1.1252 -0.2941,-1.1009 -0.1066,0.032 -0.1193,0.1522 -0.047,0.4689 z m 0.505,-2.0712 c 0.032,-0.021 0.056,-0.1085 0.054,-0.194 0,-0.095 -0.024,-0.079 -0.057,0.039 -0.03,0.1072 -0.029,0.1767 0,0.1552 z m -0.7603,4.6607 c 0.2969,0.9027 0.6107,1.6691 0.6675,1.6303 0.052,-0.035 -0.6673,-2.5828 -0.7406,-2.624 -0.146,-0.082 -0.1067,0.4457 0.074,0.9937 z m -0.6301,1.6878 c 0.093,0.1799 0.1389,0.071 0.085,-0.2 -0.044,-0.2232 -0.056,-0.2331 -0.095,-0.082 -0.025,0.095 -0.02,0.2217 0.013,0.2815 z m 0.8878,-2.7996 c 0.056,0.2057 0.093,0.411 0.081,0.4564 -0.031,0.1253 0.4479,1.4347 0.5455,1.4901 0.047,0.027 0.093,0.018 0.1029,-0.019 0.02,-0.081 -0.6961,-2.4256 -0.75,-2.456 -0.084,-0.047 -0.075,0.1768 0.021,0.5284 z m -0.6435,2.1115 c 0.029,0.056 0.064,0.053 0.08,0 0.016,-0.06 0,-0.1267 -0.041,-0.1475 -0.038,-0.021 -0.074,-0.018 -0.08,0 0,0.025 0.013,0.092 0.041,0.1475 z m 0.4105,0.271 c 0.08,0.2166 0.2199,0.6068 0.3105,0.8671 0.1816,0.5214 0.2488,0.6065 0.304,0.3848 0.02,-0.081 -0.02,-0.215 -0.091,-0.2979 -0.07,-0.082 -0.221,-0.4616 -0.3353,-0.8416 -0.1143,-0.3801 -0.2236,-0.7 -0.2429,-0.7109 -0.1015,-0.057 -0.074,0.252 0.054,0.5985 z m -0.3345,1.1655 c 0.067,0.09 0.076,0.065 0.048,-0.1392 -0.017,-0.1364 -0.056,-0.2617 -0.084,-0.2772 -0.083,-0.046 -0.054,0.2985 0.034,0.4164 z m 0.3809,0.052 c 0.1685,0.095 0.1677,-0.3113 0,-0.4496 -0.1338,-0.1099 -0.1476,-0.095 -0.1273,0.1337 0.013,0.1412 0.07,0.2834 0.1282,0.316 z m 1.1478,-0.035 c 0.1193,-0.082 0.094,-0.3214 -0.042,-0.3977 -0.081,-0.046 -0.096,0 -0.077,0.2032 0.015,0.1768 0.053,0.2392 0.1193,0.1945 z m 0.1845,-0.042 c 0.044,0.1183 0.1169,0.1691 0.2158,0.1517 0.081,-0.014 0.1805,0.016 0.2201,0.065 0.1029,0.1308 0.4994,-0.057 0.5535,-0.2631 0.043,-0.1615 -0.113,-0.6273 -0.232,-0.6943 -0.029,-0.017 -0.071,0.04 -0.093,0.1281 -0.022,0.087 -0.093,0.1581 -0.1566,0.159 -0.064,0 -0.1336,0.065 -0.1531,0.1445 -0.043,0.1714 -0.079,0.1578 -0.219,-0.081 -0.087,-0.1495 -0.1143,-0.1469 -0.1549,0.016 -0.027,0.1086 -0.019,0.2768 0.019,0.3747 z m 1.3414,-0.8217 c 0.029,0.055 0.071,0.029 0.093,-0.058 0.022,-0.087 0.013,-0.1777 -0.028,-0.1989 -0.038,-0.021 -0.079,0 -0.093,0.058 -0.013,0.053 0,0.1427 0.028,0.1989 z m 2.635,-2.2422 c 0.032,-0.021 0.056,-0.1086 0.054,-0.1942 0,-0.095 -0.024,-0.079 -0.057,0.039 -0.03,0.1072 -0.029,0.1766 0,0.1552 z m 0.9011,-0.047 c 0.038,0.021 0.087,-0.03 0.1066,-0.1155 0.022,-0.085 0.013,-0.1717 -0.03,-0.1928 -0.038,-0.021 -0.087,0.03 -0.1066,0.1156 -0.021,0.085 -0.013,0.1715 0.03,0.1927 z m 0.7541,0.5417 c 0.064,0.036 0.1743,-0.2528 0.129,-0.3409 -0.028,-0.054 -0.074,0 -0.1029,0.1141 -0.03,0.117 -0.041,0.2185 -0.026,0.2268 z m 0.4303,-1.2235 c 0.047,-0.014 0.108,-0.1169 0.1356,-0.2307 0.028,-0.1128 0.014,-0.1943 -0.033,-0.1807 -0.047,0.014 -0.1066,0.1184 -0.1356,0.2309 -0.028,0.1127 -0.013,0.1943 0.033,0.1805 z m 3.1778,-11.5706 c 0.095,-0.065 -0.029,-0.3511 -0.139,-0.3185 -0.075,0.022 -0.077,0.074 -0.013,0.194 0.051,0.09 0.118,0.1461 0.1493,0.1253 z m -0.6976,8.8565 c 0.022,0.081 0.052,0.067 0.077,-0.035 0.061,-0.2469 0.048,-0.5333 -0.027,-0.5755 -0.073,-0.04 -0.1092,0.4002 -0.051,0.6101 z m 0.6094,-1.6969 c 0.104,0.049 0.1423,-0.1916 0.05,-0.3049 -0.051,-0.062 -0.087,-0.029 -0.1004,0.087 -0.013,0.1017 0.013,0.1998 0.051,0.218 z m 0.9588,-2.0463 c 0.03,0.017 0.037,-0.085 0.017,-0.2243 -0.019,-0.1395 -0.058,-0.2672 -0.086,-0.2833 -0.03,-0.017 -0.037,0.085 -0.019,0.2242 0.019,0.1396 0.058,0.2671 0.087,0.2834 z m -0.3395,1.9195 c 0.038,0.022 0.1055,-0.019 0.1485,-0.092 0.104,-0.1764 0.098,-0.5063 -0.013,-0.4746 -0.1117,0.033 -0.2304,0.5158 -0.1394,0.5669 z m 0.5966,0.1016 c 0.038,0.021 0.087,-0.03 0.1067,-0.1155 0.021,-0.085 0.013,-0.1715 -0.03,-0.1927 -0.038,-0.021 -0.085,0.03 -0.1067,0.1155 -0.022,0.085 -0.013,0.1716 0.03,0.1927 z m -1.0835,4.4089 c 0.083,0.2704 0.1392,0.2436 0.1765,-0.082 0.03,-0.2651 0.044,-0.2787 0.1092,-0.1085 0.1105,0.2898 0.2135,0.092 0.1092,-0.2106 -0.051,-0.1484 -0.1015,-0.209 -0.1193,-0.1413 -0.017,0.065 -0.076,0.093 -0.1323,0.062 -0.1231,-0.07 -0.2158,0.2433 -0.1436,0.4819 z m 0.9703,-3.3 c 0.028,0.1613 0.047,0.1743 0.1066,0.075 0.041,-0.065 0.1522,-0.1744 0.2492,-0.2408 0.2149,-0.1469 0.298,-0.4399 0.1988,-0.7006 -0.065,-0.1695 -0.081,-0.1543 -0.1274,0.1197 -0.037,0.2176 -0.086,0.2997 -0.1594,0.2692 -0.058,-0.024 -0.1306,-0.052 -0.1605,-0.062 -0.08,-0.025 -0.1472,0.3135 -0.1079,0.5392 z m -0.1553,2.0233 c 0.1104,0.062 0.3613,-0.062 0.3941,-0.1927 0.038,-0.1515 -0.1591,-0.329 -0.276,-0.2489 -0.077,0.052 -0.1722,0.4112 -0.1181,0.4416 z m 0.9944,-2.7235 c 0.016,0.014 0.044,-0.054 0.066,-0.1392 0.022,-0.085 0.013,-0.1711 -0.028,-0.1916 -0.037,-0.021 -0.066,0.041 -0.066,0.1392 0,0.097 0.013,0.1832 0.028,0.1916 z m -0.8831,4.293 c 0.054,0.2984 0.13,0.5598 0.1675,0.5807 0.091,0.052 0.1729,-0.3012 0.1977,-0.8546 0.021,-0.4718 -0.051,-0.6594 -0.2507,-0.657 -0.182,0 -0.2231,0.3368 -0.1142,0.9309 z m 0.8932,-2.6458 c 0.038,0.021 0.079,0 0.093,-0.059 0.013,-0.053 0,-0.1427 -0.028,-0.1987 -0.03,-0.056 -0.071,-0.029 -0.093,0.058 -0.022,0.087 -0.013,0.1777 0.028,0.1988 z m 0.7736,-1.851 c 0.03,0.055 0.065,0.053 0.08,0 0.015,-0.06 0,-0.1267 -0.042,-0.1475 -0.038,-0.021 -0.074,-0.018 -0.08,0 0,0.025 0.013,0.092 0.041,0.1475 z m -1.13,4.6325 c -0.036,0.4983 0.058,0.9188 0.1352,0.6103 0.066,-0.2644 0.089,-1.3559 0.029,-1.3896 -0.084,-0.047 -0.1167,0.11 -0.1639,0.7793 z m 0.4843,-0.3613 c 0.013,0.2397 0.037,0.3402 0.079,0.263 0.087,-0.1581 0.1003,-0.7517 0.019,-0.7979 -0.085,-0.047 -0.1092,0.082 -0.096,0.5349 z m 0.5465,-0.5457 c -0.015,0.2378 0.1467,0.4661 0.1946,0.2743 0.028,-0.1142 -0.023,-0.852 -0.061,-0.8733 -0.042,-0.024 -0.1142,0.3014 -0.1335,0.599 z m -0.151,-8.9675 c 0.031,0.018 0.084,0.186 0.1143,0.373 0.03,0.1869 0.1385,0.6565 0.2399,1.0438 0.1923,0.7342 0.2654,1.255 0.1836,1.311 -0.027,0.018 -0.1244,-0.3411 -0.2171,-0.7978 -0.093,-0.4568 -0.2233,-0.9877 -0.2893,-1.1799 -0.1206,-0.3527 -0.1403,-0.8114 -0.031,-0.7501 z m 1.3415,3.6381 c 0.037,-0.014 0.075,0.2065 0.085,0.4832 0.013,0.2766 0.046,0.9937 0.08,1.5931 0.089,1.5679 0.08,2.2674 -0.04,3.261 -0.127,1.0509 -0.1257,1.0435 -0.2055,0.9984 -0.066,-0.036 -0.043,-0.8427 0.054,-2.0153 0.05,-0.5966 0.041,-2.4268 -0.019,-3.794 -0.013,-0.2786 0.013,-0.5154 0.044,-0.5264 z m 0.744,0.4675 c 0.081,0.046 0.168,3.3168 0.1182,4.4635 -0.024,0.5365 -0.084,1.0121 -0.1465,1.1488 l -0.1067,0.2333 -0.013,-0.3562 c 0,-0.196 0.021,-0.7258 0.06,-1.1772 0.037,-0.4514 0.042,-1.554 0.013,-2.4503 -0.054,-1.6236 -0.043,-1.9271 0.071,-1.862 z m 0.6021,0.9252 c 0.021,0.014 0.074,0.6352 0.1169,1.3851 0.083,1.435 0.024,2.9111 -0.1289,3.2327 -0.075,0.1573 -0.087,0.1211 -0.063,-0.2031 0.093,-1.2439 0.1154,-2.7207 0.054,-3.426 -0.067,-0.7778 -0.063,-1.0345 0.019,-0.9887 z m 0.9501,-2.3316 c 0.042,0.055 0.1003,0.4427 0.1303,0.8612 0.1232,1.7055 0.3146,5.0293 0.3045,5.2811 -0.013,0.1912 0.017,0.2495 0.09,0.2008 0.071,-0.049 0.1066,-0.1938 0.1232,-0.4995 0.033,-0.6181 0.3873,-2.3948 0.4691,-2.3488 0.08,0.046 0.2159,0.838 0.2488,1.4542 0.026,0.4741 0.1231,0.5535 0.2272,0.1848 0.034,-0.1226 0,0.2739 -0.064,0.8799 -0.1727,1.509 -0.2731,1.6981 -0.2395,0.4513 0.027,-1.0098 -0.075,-2.0941 -0.2038,-2.1666 -0.084,-0.047 -0.1092,0.082 -0.1917,0.9474 -0.081,0.86 -0.4027,2.2357 -0.5076,2.1767 -0.074,-0.041 -0.096,-0.4063 -0.1942,-3.1353 -0.053,-1.4993 -0.099,-1.9302 -0.1747,-1.6294 -0.017,0.071 -0.047,0.8111 -0.064,1.6446 -0.017,0.8335 -0.077,1.7783 -0.1347,2.0997 -0.095,0.5396 -0.1015,0.5535 -0.089,0.182 0.02,-0.5715 0.04,-2.2533 0.034,-3.1082 0,-0.3993 0.024,-0.8353 0.057,-0.9689 0.064,-0.262 0.097,-1.4104 0.053,-1.9584 -0.033,-0.4195 0.027,-0.6809 0.1268,-0.5486 z m 1.9896,1.8756 c 0.1168,0.065 0.2491,0.5217 0.3666,1.2618 0.1439,0.9063 0.2902,3.2639 0.2338,3.7668 -0.058,0.5253 -0.1315,0.2704 -0.1396,-0.4891 -0.013,-0.8921 -0.2581,-2.9548 -0.3687,-3.0582 -0.083,-0.078 -0.1231,0.032 -0.2709,0.7271 -0.1649,0.7779 -0.1704,0.7908 -0.1155,0.2647 0.059,-0.5526 0.1704,-1.7798 0.2061,-2.2587 0.013,-0.1391 0.05,-0.2358 0.087,-0.2144 z"
       inkscape:connector-curvature="0"
       style="fill:#ffffff;fill-opacity:1;stroke-width:0.289724"
       id="path4014" />
    <text
       transform="scale(0.9772736,1.0232549)"
       id="text1003"
       y="979.20459"
       x="7078.9258"
       style="font-style:normal;font-weight:normal;font-size:10.1828px;line-height:1.25;font-family:sans-serif;inline-size:0;fill:#ffffff;fill-opacity:1;stroke:none;stroke-width:0.848565"
       xml:space="preserve"><tspan
         style="font-style:normal;font-variant:normal;font-weight:normal;font-stretch:normal;font-family:'Arial Rounded MT Bold';-inkscape-font-specification:'Arial Rounded MT Bold, ';stroke-width:0.848565"
         y="979.20459"
         x="7078.9258"
         id="tspan1001"
         sodipodi:role="line">T.A.M.</tspan></text>
  </g>
  <metadata
     id="metadata21">
    <rdf:RDF>
      <cc:Work>
        <dc:format>image/svg+xml</dc:format>
        <dc:type
           rdf:resource="http://purl.org/dc/dcmitype/StillImage" />
        <cc:license
           rdf:resource="http://creativecommons.org/publicdomain/zero/1.0/" />
        <dc:publisher>
          <cc:Agent
             rdf:about="http://openclipart.org/">
            <dc:title>Openclipart</dc:title>
          </cc:Agent>
        </dc:publisher>
        <dc:title></dc:title>
      </cc:Work>
      <cc:License
         rdf:about="http://creativecommons.org/licenses/publicdomain/">
        <cc:permits
           rdf:resource="http://creativecommons.org/ns#Reproduction" />
        <cc:permits
           rdf:resource="http://creativecommons.org/ns#Distribution" />
        <cc:permits
           rdf:resource="http://creativecommons.org/ns#DerivativeWorks" />
      </cc:License>
    </rdf:RDF>
  </metadata>
</svg>
